<svg width="72" height="72" fill="none" xmlns="http://www.w3.org/2000/svg">
  <path d="M55.2 24a5.908 5.908 0 0 0-3.6 1.236V10.8a6 6 0 0 0-6-6A5.909 5.909 0 0 0 42 6.036V6a6 6 0 1 0-12 0v.036A5.909 5.909 0 0 0 26.4 4.8a6 6 0 0 0-6 6v.036A5.909 5.909 0 0 0 16.8 9.6a6 6 0 0 0-6 6v37.2c0 .197.049.391.144.564l6.888 12.924A10.8 10.8 0 0 0 27.36 72h17.28a10.8 10.8 0 0 0 9.528-5.712l6.888-12.924a1.16 1.16 0 0 0 .144-.564V30a6 6 0 0 0-6-6Zm3.6 28.5-6.744 12.648A8.387 8.387 0 0 1 44.64 69.6H27.36a8.388 8.388 0 0 1-7.416-4.452L13.2 52.5V15.6a3.6 3.6 0 1 1 7.2 0v22.8h2.4V10.8a3.6 3.6 0 0 1 7.2 0v27.6h2.4V6a3.6 3.6 0 0 1 7.2 0v32.4H42V10.8a3.6 3.6 0 0 1 7.2 0v27.6h2.4V30a3.6 3.6 0 1 1 7.2 0v22.5Z" fill="#fff" />
  <path d="M18 19.2h-2.4V24H18v-4.8ZM27.6 14.4h-2.4V24h2.4v-9.6ZM54 33.6v13.86l-7.236 6.324a1.184 1.184 0 0 0-.876-.948l-.804-.204.432-.708a1.2 1.2 0 0 0-.18-1.464l-.96-.96 2.34-5.856c.058-.14.086-.292.084-.444V26.4h-2.4v16.572l-1.872 4.68-.588-.588a1.214 1.214 0 0 0-1.464-.18l-.708.432-.204-.804A1.2 1.2 0 0 0 38.4 45.6h-1.2V26.4h-2.4v19.2h-1.2a1.2 1.2 0 0 0-1.164.912l-.204.804-.708-.432a1.217 1.217 0 0 0-1.464.18l-.588.588-1.872-4.68V26.4h-2.4v16.8c-.002.152.026.303.084.444l2.34 5.856-.96.96a1.2 1.2 0 0 0-.18 1.464l.432.708-.804.204a1.184 1.184 0 0 0-.876.948L18 47.46V26.4h-2.4V48a1.176 1.176 0 0 0 .408.9l9.192 8.04v1.86a1.2 1.2 0 0 0 .912 1.164l.804.204-.432.708a1.2 1.2 0 0 0 .18 1.464l3.396 3.396a1.2 1.2 0 0 0 1.464.18l.708-.432.204.804a1.2 1.2 0 0 0 1.164.912h4.8a1.2 1.2 0 0 0 1.164-.912l.204-.804.708.432a1.2 1.2 0 0 0 1.464-.18l3.396-3.396a1.2 1.2 0 0 0 .18-1.464l-.432-.708.804-.204A1.2 1.2 0 0 0 46.8 58.8v-1.86l9.192-8.04a1.176 1.176 0 0 0 .408-.9V33.6H54Zm-9.6 24.264-1.464.36a1.209 1.209 0 0 0-.906 1.256c.012.188.068.37.162.532l.78 1.296-2.064 2.064-1.296-.768a1.187 1.187 0 0 0-1.08-.084 1.21 1.21 0 0 0-.708.816l-.36 1.464h-2.928l-.36-1.464a1.209 1.209 0 0 0-1.258-.904c-.188.014-.37.073-.53.172l-1.296.768-2.064-2.064.78-1.296a1.223 1.223 0 0 0-.253-1.53 1.209 1.209 0 0 0-.491-.258l-1.464-.36v-2.928l1.464-.36a1.208 1.208 0 0 0 .906-1.256 1.223 1.223 0 0 0-.162-.532l-.78-1.296 2.064-2.064 1.296.768a1.187 1.187 0 0 0 1.08.084 1.207 1.207 0 0 0 .708-.816l.36-1.464h2.928l.36 1.464a1.209 1.209 0 0 0 1.258.904c.188-.014.37-.073.53-.172l1.296-.768 2.064 2.064-.78 1.296a1.223 1.223 0 0 0 .252 1.53c.142.123.31.211.492.258l1.464.36v2.928ZM37.2 9.6h-2.4V24h2.4V9.6ZM18 14.4h-2.4v2.4H18v-2.4ZM46.8 14.4h-2.4V24h2.4v-9.6ZM27.6 9.6h-2.4V12h2.4V9.6ZM46.8 9.6h-2.4V12h2.4V9.6ZM37.2 4.8h-2.4v2.4h2.4V4.8ZM16.8 4.8h-12v2.4h12V4.8ZM2.4 4.8H0v2.4h2.4V4.8ZM2.4 12v4.308l5.652 5.64-1.704 1.704-6-6A1.24 1.24 0 0 1 0 16.8V9.6h9.6V12H2.4ZM7.2 0H0v2.4h7.2V0ZM16.8 0H9.6v2.4h7.2V0ZM67.2 4.8h-12v2.4h12V4.8ZM72 4.8h-2.4v2.4H72V4.8ZM72 9.6v7.2a1.24 1.24 0 0 1-.348.852l-6 6-1.704-1.704 5.652-5.64V12h-7.2V9.6H72ZM72 0h-7.2v2.4H72V0ZM62.4 0h-7.2v2.4h7.2V0ZM56.4 28.8H54v2.4h2.4v-2.4Z" fill="#fff" />
  <path d="M36 51.6a4.8 4.8 0 1 0 0 9.6 4.8 4.8 0 0 0 0-9.6Zm0 7.2a2.4 2.4 0 1 1 0-4.8 2.4 2.4 0 0 1 0 4.8Z" fill="#fff" />
</svg>