<svg width="72" height="72" fill="none" xmlns="http://www.w3.org/2000/svg">
  <path d="M63.6 15.6v6H66v-6a6.007 6.007 0 0 0-6-6H45.6V12H60a3.6 3.6 0 0 1 3.6 3.6ZM8.4 15.6A3.6 3.6 0 0 1 12 12h14.4V9.6H12a6.007 6.007 0 0 0-6 6v3.6h2.4v-3.6ZM48 7.2h2.4V4.8h2.4V2.4h-2.4V0H48v2.4h-2.4v2.4H48v2.4ZM21.6 7.2H24V4.8h2.4V2.4H24V0h-2.4v2.4h-2.4v2.4h2.4v2.4Z" fill="#fff" />
  <path d="M48 21.6h2.4v-2.4h2.4v-2.4h-2.4v-2.4H48v2.4h-2.4v2.4H48v2.4ZM24 21.6v-2.4h2.4v-2.4H24v-2.4h-2.4v2.4h-2.4v2.4h2.4v2.4H24ZM32.4 55.2h-6.804l-3.996-3v-2.112a8.412 8.412 0 0 0 3.6-6.888v-3.108l3.252-3.24A1.24 1.24 0 0 0 28.8 36v-1.2a8.41 8.41 0 0 0-8.4-8.4h-7.2a8.41 8.41 0 0 0-8.4 8.4V36c.002.318.127.623.348.852l3.252 3.24V43.2a8.412 8.412 0 0 0 3.6 6.888V52.2l-3.996 3H1.2A1.2 1.2 0 0 0 0 56.4v4.8A10.817 10.817 0 0 0 10.8 72h12a10.816 10.816 0 0 0 10.8-10.8v-4.8a1.2 1.2 0 0 0-1.2-1.2ZM8.4 36v.708l-1.2-1.2V34.8a6 6 0 0 1 6-6h7.2a6 6 0 0 1 6 6v.708l-1.2 1.2V36a1.2 1.2 0 0 0-.912-1.164l-9.6-2.4a1.174 1.174 0 0 0-.828.096l-4.8 2.4A1.186 1.186 0 0 0 8.4 36Zm2.4 7.2v-6.456l3.744-1.872 8.256 2.064V43.2a6 6 0 1 1-12 0Zm3.12 10.56a1.217 1.217 0 0 0 .48-.96v-1.548a8.45 8.45 0 0 0 4.8 0V52.8a1.217 1.217 0 0 0 .48.96l3.336 2.508L16.8 59.82l-6.216-3.552 3.336-2.508ZM31.2 61.2a8.41 8.41 0 0 1-8.4 8.4h-12a8.41 8.41 0 0 1-8.4-8.4v-3.6h5.676l8.124 4.644a1.253 1.253 0 0 0 1.2 0l8.124-4.644H31.2v3.6ZM70.8 55.2h-3.6V34.8a8.41 8.41 0 0 0-8.4-8.4h-7.2a8.41 8.41 0 0 0-8.4 8.4v20.4h-3.6a1.2 1.2 0 0 0-1.2 1.2v4.8A10.816 10.816 0 0 0 49.2 72h12A10.816 10.816 0 0 0 72 61.2v-4.8a1.2 1.2 0 0 0-1.2-1.2ZM45.6 34.8a6 6 0 0 1 6-6h7.2a6 6 0 0 1 6 6v20.4h-.804L60 52.2v-2.112a8.412 8.412 0 0 0 3.6-6.888V36a1.2 1.2 0 0 0-.54-.996l-3.6-2.4a1.19 1.19 0 0 0-.924-.18l-10.8 2.4A1.218 1.218 0 0 0 46.8 36v7.2a8.412 8.412 0 0 0 3.6 6.888V52.2l-3.996 3H45.6V34.8Zm6.72 18.96a1.217 1.217 0 0 0 .48-.96v-1.548a8.45 8.45 0 0 0 4.8 0V52.8a1.217 1.217 0 0 0 .48.96l3.336 2.508L55.2 59.82l-6.216-3.552 3.336-2.508ZM49.2 43.2v-6.24l9.36-2.076 2.64 1.764V43.2a6 6 0 1 1-12 0Zm20.4 18a8.41 8.41 0 0 1-8.4 8.4h-12a8.41 8.41 0 0 1-8.4-8.4v-3.6h5.676l8.124 4.644a1.253 1.253 0 0 0 1.2 0l8.124-4.644H69.6v3.6ZM31.44 11.815c.72.672.96.948.96 1.385a1.2 1.2 0 0 0 1.2 1.2h4.8a1.2 1.2 0 0 0 1.2-1.2c0-.437.25-.713.96-1.385A7.098 7.098 0 0 0 43.2 6c0-3.938-3.623-6-7.2-6s-7.2 2.062-7.2 6a7.096 7.096 0 0 0 2.64 5.815ZM36 2.4c2.312 0 4.8 1.126 4.8 3.6a4.788 4.788 0 0 1-1.882 4.07A5.425 5.425 0 0 0 37.42 12h-2.84a5.425 5.425 0 0 0-1.498-1.93A4.788 4.788 0 0 1 31.2 6c0-2.474 2.488-3.6 4.8-3.6ZM39.6 15.6h-7.2V18h7.2v-2.4ZM39.6 19.2h-7.2v2.4h7.2v-2.4Z" fill="#fff" />
  <path d="M20.4 39.6H18V42h2.4v-2.4ZM15.6 39.6h-2.4V42h2.4v-2.4ZM58.8 39.6h-2.4V42h2.4v-2.4ZM54 39.6h-2.4V42H54v-2.4Z" fill="#fff" />
</svg>