<svg width="72" height="72" fill="none" xmlns="http://www.w3.org/2000/svg">
  <path d="M28.932 10.904a1.202 1.202 0 0 0-.437-.592 1.217 1.217 0 0 0-.703-.23h-4.776l-1.476-4.5a1.191 1.191 0 0 0-.436-.593 1.206 1.206 0 0 0-1.844.593l-1.476 4.5h-4.776a1.206 1.206 0 0 0-1.135.828 1.182 1.182 0 0 0 .439 1.328l3.852 2.786-1.476 4.501a1.182 1.182 0 0 0 .444 1.322 1.176 1.176 0 0 0 1.404 0l3.864-2.775 3.864 2.775a1.153 1.153 0 0 0 1.404 0 1.192 1.192 0 0 0 .444-1.322l-1.476-4.5 3.852-2.787a1.21 1.21 0 0 0 .444-1.334ZM22.08 14.93l.6 1.845-1.572-1.143a1.22 1.22 0 0 0-1.416 0l-1.572 1.143.6-1.845a1.172 1.172 0 0 0-.432-1.322l-1.584-1.143h1.956c.253-.002.498-.082.703-.23.204-.146.357-.354.437-.591l.6-1.846.6 1.845c.08.238.233.446.437.593.205.147.45.227.703.23h1.956l-1.584 1.142a1.182 1.182 0 0 0-.432 1.322ZM60.132 10.904a1.202 1.202 0 0 0-.437-.592 1.217 1.217 0 0 0-.703-.23h-4.776l-1.476-4.5a1.191 1.191 0 0 0-.436-.593 1.206 1.206 0 0 0-1.844.593l-1.476 4.5h-4.776a1.206 1.206 0 0 0-1.135.828 1.182 1.182 0 0 0 .439 1.328l3.852 2.786-1.476 4.501a1.182 1.182 0 0 0 .444 1.322 1.176 1.176 0 0 0 1.404 0l3.864-2.775 3.864 2.775a1.153 1.153 0 0 0 1.404 0 1.192 1.192 0 0 0 .444-1.322l-1.476-4.5 3.852-2.787a1.21 1.21 0 0 0 .444-1.334ZM53.28 14.93l.6 1.845-1.572-1.143a1.22 1.22 0 0 0-1.416 0l-1.572 1.143.6-1.845a1.172 1.172 0 0 0-.432-1.322l-1.584-1.143h1.956c.253-.002.498-.082.703-.23.204-.146.357-.354.437-.591l.6-1.846.6 1.845c.08.238.233.446.437.593.205.147.45.227.703.23h1.956l-1.584 1.142a1.182 1.182 0 0 0-.432 1.322Z" fill="#fff" />
  <path d="M44.532 6.141a1.202 1.202 0 0 0-.437-.592 1.217 1.217 0 0 0-.703-.23h-4.776L37.14.82a1.191 1.191 0 0 0-.436-.593A1.206 1.206 0 0 0 34.86.82l-1.476 4.5h-4.776a1.206 1.206 0 0 0-.703.232 1.191 1.191 0 0 0-.43 1.33c.08.24.232.447.437.594l3.852 2.786-1.476 4.501a1.182 1.182 0 0 0 .444 1.322 1.176 1.176 0 0 0 1.404 0L36 13.31l3.864 2.774a1.153 1.153 0 0 0 1.404 0 1.19 1.19 0 0 0 .444-1.322l-1.476-4.5 3.852-2.787a1.211 1.211 0 0 0 .444-1.334Zm-6.852 4.025.6 1.846-1.572-1.143a1.22 1.22 0 0 0-1.416 0l-1.572 1.143.6-1.846a1.172 1.172 0 0 0-.432-1.322l-1.584-1.143h1.956a1.217 1.217 0 0 0 1.14-.821l.6-1.846.6 1.846c.08.238.233.445.437.592.205.147.45.227.703.23h1.956l-1.584 1.142a1.182 1.182 0 0 0-.432 1.322Z" fill="#fff" />
  <path d="M67.2 7.701a4.82 4.82 0 0 0-3.394 1.395 4.744 4.744 0 0 0-1.406 3.368v23.398l-7.2 8.93V32.706a3.57 3.57 0 0 0-1.058-2.523 3.625 3.625 0 0 0-2.542-1.049h-2.028a14.295 14.295 0 0 0-5.26-6.903A14.471 14.471 0 0 0 36 19.609c-2.977 0-5.881.916-8.312 2.622a14.295 14.295 0 0 0-5.26 6.903H20.4a3.625 3.625 0 0 0-2.542 1.05 3.569 3.569 0 0 0-1.058 2.522v12.086l-7.2-8.93V12.464a4.744 4.744 0 0 0-1.406-3.368A4.819 4.819 0 0 0 4.8 7.701a4.819 4.819 0 0 0-3.394 1.395A4.744 4.744 0 0 0 0 12.464v34.53c0 .27.093.53.264.74l8.052 9.99a1.204 1.204 0 0 0-.79.372 1.186 1.186 0 0 0-.326.806v4.763c0 .316.126.619.351.842.226.223.53.349.849.349h.732L7.26 70.428a1.182 1.182 0 0 0 .168 1.072 1.177 1.177 0 0 0 .972.5h19.2c.318 0 .623-.126.848-.349.226-.223.352-.526.352-.842v-5.953H30c.318 0 .623-.126.849-.35.225-.222.351-.525.351-.841v-4.763c0-.316-.126-.619-.351-.842a1.205 1.205 0 0 0-.849-.349h-.552l4.044-9.037c.097-.221.119-.468.06-.703 1.62.286 3.277.286 4.896 0-.059.235-.037.482.06.703l4.044 9.037H42c-.318 0-.623.126-.849.35a1.186 1.186 0 0 0-.351.841v4.763c0 .316.126.619.352.842.224.223.53.349.848.349h1.2v5.953c0 .316.126.619.351.842.225.224.53.349.849.349h19.2a1.187 1.187 0 0 0 .972-.5 1.186 1.186 0 0 0 .168-1.072l-1.872-5.572h.732c.318 0 .623-.126.848-.35.226-.222.352-.525.352-.841v-4.763a1.186 1.186 0 0 0-.325-.806 1.204 1.204 0 0 0-.791-.373l8.052-9.99c.171-.208.265-.47.264-.738v-34.53a4.744 4.744 0 0 0-1.406-3.369A4.82 4.82 0 0 0 67.2 7.701ZM36 21.99c2.643-.01 5.214.85 7.31 2.448a11.83 11.83 0 0 1 4.27 6.375l-4.176 7.764a9.71 9.71 0 0 0-3.42-2.644 5.946 5.946 0 0 0 1.843-3.032 5.91 5.91 0 0 0-.218-3.534 5.961 5.961 0 0 0-2.202-2.786 6.032 6.032 0 0 0-6.814 0 5.96 5.96 0 0 0-2.202 2.786 5.91 5.91 0 0 0-.218 3.534 5.946 5.946 0 0 0 1.843 3.032 9.71 9.71 0 0 0-3.42 2.644l-4.176-7.764a11.83 11.83 0 0 1 4.27-6.375A11.988 11.988 0 0 1 36 21.99Zm3.6 9.526c0 .706-.211 1.397-.607 1.984a3.594 3.594 0 0 1-1.615 1.316 3.626 3.626 0 0 1-3.924-.775 3.547 3.547 0 0 1-.78-3.893A3.579 3.579 0 0 1 34 28.546a3.62 3.62 0 0 1 2-.602c.954.003 1.868.38 2.542 1.05a3.57 3.57 0 0 1 1.058 2.523ZM26.4 69.619H10.068l1.596-4.763H26.4v4.763Zm2.4-7.145H9.6v-2.381h19.2v2.381Zm-1.98-4.763H11.376L2.4 46.578V12.464c0-.632.253-1.237.703-1.684a2.41 2.41 0 0 1 3.394 0c.45.447.703 1.053.703 1.684v23.814c0 .27.093.53.264.739l9.6 11.907a1.18 1.18 0 0 0 1.332.38 1.184 1.184 0 0 0 .804-1.12V32.708c0-.316.126-.618.352-.842.224-.223.53-.348.848-.348h1.68l8.988 16.717-4.248 9.478Zm5.316-12.55-2.28-4.227a7.126 7.126 0 0 1 2.61-2.538 7.194 7.194 0 0 1 7.068 0 7.126 7.126 0 0 1 2.61 2.538l-2.28 4.227c-2.508.834-5.22.834-7.728 0ZM45.6 69.62v-4.763h14.736l1.596 4.763H45.6Zm16.8-7.145H43.2v-2.381h19.2v2.381Zm7.2-15.896-8.976 11.133H45.18l-4.248-9.478 8.988-16.717h1.68c.318 0 .623.125.849.348.225.224.351.527.351.842v15.48a1.199 1.199 0 0 0 .804 1.12 1.188 1.188 0 0 0 1.332-.382l9.6-11.907c.171-.209.265-.47.264-.739V12.465c0-.632.253-1.237.703-1.684a2.41 2.41 0 0 1 3.394 0c.45.447.703 1.053.703 1.684v34.114Z" fill="#fff" />
</svg>