<svg width="72" height="72" fill="none" xmlns="http://www.w3.org/2000/svg">
  <path d="M2.573 36c.011-8.103 3.395-15.884 9.439-21.701 6.043-5.817 14.272-9.214 22.949-9.474a3.64 3.64 0 0 0 1.405 1.718 4.049 4.049 0 0 0 2.206.657c.106 0 .21-.012.313-.036l10.285-2.4c.278-.065.525-.215.701-.426.176-.21.272-.47.272-.738a1.15 1.15 0 0 0-.272-.738 1.297 1.297 0 0 0-.7-.426L38.884.036A1.373 1.373 0 0 0 38.572 0c-.8.002-1.579.237-2.229.672a3.625 3.625 0 0 0-1.399 1.753c-7.35.2-14.46 2.496-20.37 6.58S4.237 18.765 1.888 25.27a31.463 31.463 0 0 0-.455 20.114c2.053 6.59 6.22 12.436 11.94 16.75l1.618-1.865c-3.884-2.92-7.016-6.616-9.165-10.816A29.379 29.379 0 0 1 2.573 36Zm35.87-33.594 5.118 1.2L38.444 4.8a1.32 1.32 0 0 1-.825-.389 1.156 1.156 0 0 1-.333-.805c0-.298.119-.584.333-.805.214-.22.508-.36.825-.389v-.006ZM16 63.938a37.62 37.62 0 0 0 2.666 1.516l1.242-2.102a34.91 34.91 0 0 1-2.476-1.408L16 63.938ZM72 36c.006-5.004-1.188-9.947-3.494-14.464-2.307-4.518-5.668-8.496-9.837-11.643l-1.623 1.867c5.297 4.008 9.154 9.432 11.054 15.545a29.222 29.222 0 0 1-.427 18.653c-2.177 6.031-6.278 11.297-11.754 15.09-5.475 3.794-12.062 5.934-18.878 6.133a3.639 3.639 0 0 0-1.404-1.721 4.048 4.048 0 0 0-2.208-.66c-.105 0-.21.012-.312.036l-10.285 2.4a1.296 1.296 0 0 0-.701.426 1.15 1.15 0 0 0-.273.738c0 .267.096.527.273.738.176.211.423.361.7.426l10.286 2.4c.102.024.207.036.313.036a4.04 4.04 0 0 0 2.229-.672 3.625 3.625 0 0 0 1.399-1.753c9.355-.265 18.234-3.917 24.755-10.183C68.335 53.125 71.988 44.736 72 36ZM33.558 69.6l-5.113-1.2 5.117-1.194c.317.03.611.168.825.389.214.22.332.508.332.805 0 .297-.118.584-.332.805a1.32 1.32 0 0 1-.825.389l-.004.006ZM56.002 8.062a37.62 37.62 0 0 0-2.666-1.516l-1.242 2.102c.843.434 1.671.908 2.476 1.408l1.432-1.994Z" fill="#fff" />
  <path d="M36 60c9.908 0 20.572-1.877 20.572-6 0-3.944-9.764-5.83-19.285-5.984v-3.48a6.666 6.666 0 0 0 3.342.85 11.614 11.614 0 0 0 6.23-1.998c4.003-2.617 3.92-8.805 3.917-9.067a1.147 1.147 0 0 0-.233-.665 1.276 1.276 0 0 0-.59-.43 18.355 18.355 0 0 0-3.503-.807c.135-.081.273-.143.408-.23 4.004-2.617 3.922-8.806 3.918-9.067a1.147 1.147 0 0 0-.233-.665 1.276 1.276 0 0 0-.59-.431 16.183 16.183 0 0 0-8.125-.654c.401-1.154.605-2.36.601-3.572 0-4.56-5.478-8.05-5.71-8.196A1.352 1.352 0 0 0 36 9.399c-.256 0-.505.072-.718.205-.232.146-5.71 3.632-5.71 8.196a10.772 10.772 0 0 0 .595 3.57 16.207 16.207 0 0 0-8.126.652 1.277 1.277 0 0 0-.59.431 1.147 1.147 0 0 0-.233.665c0 .262-.086 6.45 3.918 9.067.135.088.274.149.41.23-1.195.155-2.37.425-3.505.807a1.277 1.277 0 0 0-.59.43 1.147 1.147 0 0 0-.233.666c0 .261-.086 6.45 3.918 9.067a11.614 11.614 0 0 0 6.235 1.998 6.674 6.674 0 0 0 3.343-.851v3.48c-9.522.155-19.285 2.04-19.285 5.984C15.43 58.123 26.093 60 36 60Zm1.287-26.668c.506.295 1.06.513 1.639.646a12 12 0 0 0-1.64 1.435v-2.08Zm8.1 8.087c-2.855 1.864-6.28 2.09-7.478.493a2.971 2.971 0 0 1-.418-1.422 2.954 2.954 0 0 1 .328-1.443c.658-1.436 1.752-2.662 3.146-3.527a6.315 6.315 0 0 1 3.457-.858c1.274.022 2.54.204 3.762.541-.131 1.795-.768 4.89-2.798 6.216Zm2.794-17.413c-.128 1.793-.771 4.888-2.795 6.214-2.854 1.863-6.279 2.09-7.477.493-1.198-1.597.2-4.527 3.053-6.391 2.174-1.421 5.633-.742 7.222-.316h-.003Zm-12.18-11.903c1.286.973 3.857 3.226 3.857 5.697 0 3.252-1.767 6-3.857 6-2.09 0-3.857-2.748-3.857-6 0-2.471 2.571-4.72 3.857-5.697ZM23.826 24c1.594-.428 5.044-1.1 7.21.318 2.855 1.865 4.254 4.793 3.054 6.391-1.2 1.599-4.628 1.372-7.477-.493-2.17-1.416-2.672-4.67-2.787-6.216ZM34.09 41.909c-1.198 1.597-4.628 1.371-7.477-.493-2.17-1.418-2.672-4.673-2.787-6.216 1.592-.429 5.043-1.1 7.21.319 1.394.864 2.486 2.09 3.144 3.524a2.952 2.952 0 0 1-.09 2.87v-.004Zm-1.014-7.935a5.883 5.883 0 0 0 1.64-.642v2.081a12 12 0 0 0-1.64-1.435v-.004Zm1.64 16.443V54h2.57v-3.583C48.308 50.592 54 52.963 54 54c0 1.08-6.123 3.6-18 3.6-11.875 0-17.999-2.52-17.999-3.6 0-1.037 5.693-3.408 16.714-3.583ZM59.143 30.91a3.39 3.39 0 0 1-.224 1.537c-.194.492-.5.938-.896 1.308-.397.37-.875.655-1.402.836a4.122 4.122 0 0 1-1.647.209c-.341 0-.668.126-.91.352a1.16 1.16 0 0 0-.376.848c0 .318.136.623.377.849.24.225.568.351.909.351a4.123 4.123 0 0 1 1.647.21 3.91 3.91 0 0 1 1.402.835c.396.37.702.816.895 1.308a3.39 3.39 0 0 1 .225 1.537c0 .319.136.624.377.849.24.225.568.351.909.351.34 0 .668-.126.909-.351a1.16 1.16 0 0 0 .377-.849 3.39 3.39 0 0 1 .224-1.538c.194-.49.5-.937.896-1.307a3.91 3.91 0 0 1 1.401-.836 4.124 4.124 0 0 1 1.648-.209c.341 0 .668-.126.91-.352A1.16 1.16 0 0 0 67.17 36a1.16 1.16 0 0 0-.377-.849 1.333 1.333 0 0 0-.909-.351 4.122 4.122 0 0 1-1.648-.21 3.91 3.91 0 0 1-1.401-.835 3.593 3.593 0 0 1-.896-1.308 3.39 3.39 0 0 1-.224-1.537 1.16 1.16 0 0 0-.377-.849 1.333 1.333 0 0 0-.91-.351c-.34 0-.667.126-.908.351a1.16 1.16 0 0 0-.377.849Zm1.286 3.89c.361.458.795.863 1.285 1.2-.49.337-.924.742-1.285 1.2a5.887 5.887 0 0 0-1.286-1.2c.49-.337.924-.742 1.286-1.2Z" fill="#fff" />
  <path d="M47.26 19.2c0 .318.135.623.376.849.241.225.568.351.91.351a4.123 4.123 0 0 1 1.647.21c.526.18 1.005.465 1.401.835.397.37.703.816.896 1.308.194.49.27 1.016.225 1.537 0 .319.135.624.376.849.241.225.568.351.91.351.34 0 .667-.126.909-.351a1.16 1.16 0 0 0 .376-.849 3.39 3.39 0 0 1 .225-1.537c.193-.492.499-.938.895-1.308a3.91 3.91 0 0 1 1.402-.836 4.124 4.124 0 0 1 1.648-.209c.34 0 .668-.126.909-.351a1.16 1.16 0 0 0 .376-.849 1.16 1.16 0 0 0-.376-.848 1.333 1.333 0 0 0-.91-.352 4.124 4.124 0 0 1-1.647-.21 3.91 3.91 0 0 1-1.401-.835 3.593 3.593 0 0 1-.896-1.307 3.39 3.39 0 0 1-.225-1.538 1.16 1.16 0 0 0-.377-.849A1.333 1.333 0 0 0 54 12.91c-.34 0-.668.126-.909.351a1.16 1.16 0 0 0-.376.849 3.388 3.388 0 0 1-.225 1.538 3.59 3.59 0 0 1-.896 1.307 3.91 3.91 0 0 1-1.401.836 4.123 4.123 0 0 1-1.648.209c-.34 0-.668.126-.909.352a1.16 1.16 0 0 0-.376.848ZM54 18c.362.458.795.863 1.286 1.2-.49.338-.924.742-1.286 1.2a5.885 5.885 0 0 0-1.285-1.2c.49-.337.924-.742 1.285-1.2ZM19.287 24.29a3.39 3.39 0 0 1 .225-1.537c.193-.492.499-.938.895-1.308a3.91 3.91 0 0 1 1.402-.836 4.124 4.124 0 0 1 1.647-.209c.341 0 .669-.126.91-.351a1.16 1.16 0 0 0 .376-.849 1.16 1.16 0 0 0-.376-.848 1.333 1.333 0 0 0-.91-.352 4.124 4.124 0 0 1-1.647-.21 3.91 3.91 0 0 1-1.402-.835 3.592 3.592 0 0 1-.895-1.307 3.39 3.39 0 0 1-.225-1.538 1.16 1.16 0 0 0-.377-.849 1.333 1.333 0 0 0-.909-.351c-.34 0-.668.126-.909.351a1.16 1.16 0 0 0-.376.849 3.388 3.388 0 0 1-.225 1.538c-.193.49-.5.937-.896 1.307-.396.37-.875.655-1.401.836a4.123 4.123 0 0 1-1.648.209c-.34 0-.668.126-.909.352a1.16 1.16 0 0 0-.377.848c0 .318.136.623.377.849.241.225.568.351.91.351a4.123 4.123 0 0 1 1.647.21 3.91 3.91 0 0 1 1.401.835c.397.37.703.816.896 1.308.194.49.27 1.016.225 1.537 0 .319.135.624.376.849.241.225.568.351.91.351.34 0 .667-.126.908-.351a1.16 1.16 0 0 0 .377-.849Zm-1.286-3.89a5.885 5.885 0 0 0-1.285-1.2c.49-.337.924-.742 1.285-1.2.362.458.795.863 1.286 1.2-.49.338-.924.742-1.286 1.2ZM17.028 34.8a4.122 4.122 0 0 1-1.648-.21 3.91 3.91 0 0 1-1.401-.835 3.592 3.592 0 0 1-.896-1.308 3.388 3.388 0 0 1-.224-1.537 1.16 1.16 0 0 0-.377-.849 1.333 1.333 0 0 0-.91-.351c-.34 0-.667.126-.908.351a1.16 1.16 0 0 0-.377.849 3.388 3.388 0 0 1-.224 1.537c-.194.492-.5.938-.896 1.308a3.91 3.91 0 0 1-1.401.836 4.122 4.122 0 0 1-1.648.209c-.341 0-.668.126-.91.352a1.16 1.16 0 0 0-.376.848c0 .318.136.623.377.849.24.225.568.351.909.351a4.124 4.124 0 0 1 1.648.21c.526.18 1.004.465 1.4.835.397.37.703.816.897 1.308.193.49.27 1.016.224 1.537 0 .319.136.624.377.849.24.225.568.351.909.351.34 0 .668-.126.909-.351a1.16 1.16 0 0 0 .377-.849 3.388 3.388 0 0 1 .224-1.538c.194-.49.5-.937.896-1.307.397-.37.875-.655 1.401-.836a4.124 4.124 0 0 1 1.648-.209c.341 0 .668-.126.91-.352a1.16 1.16 0 0 0 .376-.848 1.16 1.16 0 0 0-.377-.849 1.333 1.333 0 0 0-.909-.351Zm-5.455 2.4a5.885 5.885 0 0 0-1.286-1.2c.49-.337.924-.742 1.286-1.2.361.458.795.863 1.286 1.2-.491.337-.925.742-1.286 1.2Z" fill="#fff" />
</svg>